<svg width="60" height="60" viewBox="0 0 60 60" fill="none" xmlns="http://www.w3.org/2000/svg">
<circle cx="30" cy="30" r="29" stroke="#3700D4" stroke-width="2"/>
<path d="M37.3333 14H22.6667C21.564 14 20.6667 14.8973 20.6667 16C20.6667 17.1027 21.564 18 22.6667 18H37.3334C38.4361 18 39.3334 17.1027 39.3334 16C39.3333 14.8973 38.436 14 37.3333 14ZM37.3333 16.6667H22.6667C22.2987 16.6667 22 16.368 22 16C22 15.632 22.2987 15.3333 22.6667 15.3333H37.3334C37.7013 15.3333 38 15.632 38 16C38 16.368 37.7013 16.6667 37.3333 16.6667Z" fill="#3700D4"/>
<path d="M37.3333 42H22.6667C21.564 42 20.6667 42.8973 20.6667 44C20.6667 45.1027 21.564 46 22.6667 46H37.3334C38.4361 46 39.3334 45.1027 39.3334 44C39.3333 42.8973 38.436 42 37.3333 42ZM37.3333 44.6667H22.6667C22.2987 44.6667 22 44.368 22 44C22 43.632 22.2987 43.3333 22.6667 43.3333H37.3334C37.7014 43.3333 38.0001 43.632 38.0001 44C38 44.368 37.7013 44.6667 37.3333 44.6667Z" fill="#3700D4"/>
<path d="M27.292 28.4947L24.9267 26.4254C23.9147 25.5387 23.3334 24.2587 23.3334 22.9134V17.3334C23.3334 16.9654 23.0347 16.6667 22.6667 16.6667C22.2987 16.6667 22 16.9653 22 17.3333V22.9133C22 24.6426 22.7467 26.2893 24.0493 27.4293L26.4133 29.4986C26.56 29.6266 26.6413 29.8039 26.6413 29.9999C26.6413 30.1959 26.5613 30.3732 26.4146 30.5012L24.0493 32.5706C22.7467 33.7107 22 35.3573 22 37.0867V42.6667C22 43.0347 22.2987 43.3334 22.6667 43.3334C23.0347 43.3334 23.3334 43.0347 23.3334 42.6667V37.0867C23.3334 35.7414 23.9147 34.4614 24.9267 33.5747L27.292 31.504C27.7253 31.1253 27.9747 30.5773 27.9747 30C27.9747 29.4227 27.7267 28.8747 27.292 28.4947Z" fill="#3700D4"/>
<path d="M33.5853 29.4987L35.9506 27.4294C37.2533 26.2893 38 24.6427 38 22.9133V17.3333C38 16.9653 37.7013 16.6666 37.3333 16.6666C36.9653 16.6666 36.6666 16.9653 36.6666 17.3333V22.9133C36.6666 24.2586 36.0853 25.5386 35.0733 26.4253L32.708 28.496C32.2747 28.8747 32.0253 29.4227 32.0253 30C32.0253 30.5773 32.2733 31.1253 32.708 31.5053L35.0733 33.5746C36.0853 34.4613 36.6666 35.7413 36.6666 37.0866V42.6666C36.6666 43.0346 36.9653 43.3333 37.3333 43.3333C37.7013 43.3333 38 43.0346 38 42.6666V37.0866C38 35.3573 37.2533 33.7106 35.9507 32.5706L33.5867 30.5013C33.44 30.3733 33.3587 30.196 33.3587 30C33.3587 29.804 33.4387 29.6267 33.5853 29.4987Z" fill="#3700D4"/>
</svg>
