<svg width="60" height="60" viewBox="0 0 60 60" fill="none" xmlns="http://www.w3.org/2000/svg">
    <circle cx="30" cy="30" r="29" stroke="#3700D4" stroke-width="2"/>
    <g clip-path="url(#clip0)">
        <path d="M44.6198 33.7549C45.2756 32.9184 45.5901 32.0217 45.55 31.0983C45.5098 30.0811 45.0548 29.2848 44.68 28.7963C45.115 27.7123 45.2823 26.0059 43.8302 24.6809C42.7662 23.7106 40.9594 23.2756 38.4567 23.3961C36.6968 23.4764 35.2246 23.8043 35.1644 23.8176H35.1577C34.8231 23.8779 34.4684 23.9515 34.1071 24.0318C34.0803 23.6035 34.1539 22.5395 34.9435 20.1439C35.8804 17.2932 35.8268 15.1117 34.7695 13.6529C33.6587 12.1205 31.8854 12 31.3634 12C30.8616 12 30.3998 12.2074 30.0719 12.5889C29.3291 13.4521 29.4161 15.0448 29.5098 15.7808C28.6265 18.1497 26.1506 23.9582 24.056 25.5709C24.0159 25.5977 23.9824 25.6311 23.949 25.6646C23.3333 26.3137 22.9184 27.0163 22.6374 27.632C22.2426 27.4178 21.7942 27.2974 21.3124 27.2974H17.2304C15.6913 27.2974 14.4467 28.5487 14.4467 30.0811V40.9552C14.4467 42.4944 15.698 43.739 17.2304 43.739H21.3124C21.908 43.739 22.4634 43.5517 22.9184 43.2304L24.491 43.4178C24.7319 43.4513 29.0146 43.9933 33.4111 43.9063C34.2074 43.9665 34.9569 44 35.6529 44C36.8507 44 37.8946 43.9063 38.7645 43.7189C40.8122 43.284 42.2108 42.4141 42.9201 41.1359C43.4621 40.1589 43.4621 39.1886 43.3751 38.573C44.7068 37.3685 44.941 36.0368 44.8942 35.1C44.8674 34.5579 44.747 34.0962 44.6198 33.7549ZM17.2304 41.9322C16.6884 41.9322 16.2534 41.4906 16.2534 40.9552V30.0744C16.2534 29.5324 16.6951 29.0974 17.2304 29.0974H21.3124C21.8544 29.0974 22.2894 29.5391 22.2894 30.0744V40.9486C22.2894 41.4906 21.8478 41.9256 21.3124 41.9256H17.2304V41.9322ZM42.9067 32.972C42.6257 33.2664 42.5721 33.7148 42.7863 34.0627C42.7863 34.0694 43.0606 34.5378 43.0941 35.1803C43.1409 36.0569 42.7194 36.8331 41.836 37.4956C41.5215 37.7365 41.3944 38.1514 41.5282 38.5261C41.5282 38.5328 41.816 39.4161 41.3475 40.2526C40.8992 41.0556 39.9021 41.6311 38.3898 41.9523C37.1786 42.2133 35.5324 42.2601 33.5115 42.0995C33.4847 42.0995 33.4513 42.0995 33.4178 42.0995C29.115 42.1932 24.7654 41.6311 24.7185 41.6244H24.7118L24.036 41.5441C24.0761 41.3568 24.0962 41.156 24.0962 40.9552V30.0744C24.0962 29.7867 24.0493 29.5056 23.969 29.2447C24.0895 28.7963 24.4241 27.7992 25.2137 26.9494C28.2183 24.5671 31.156 16.5303 31.2831 16.1824C31.3367 16.0418 31.3501 15.8879 31.3233 15.734C31.2095 14.9845 31.2497 14.0678 31.4103 13.7934C31.7649 13.8001 32.7219 13.9005 33.2974 14.6968C33.9799 15.6403 33.9531 17.3266 33.2171 19.5617C32.0928 22.9678 31.9992 24.7612 32.8892 25.5508C33.3308 25.9456 33.9197 25.9657 34.348 25.8118C34.7562 25.7181 35.1443 25.6378 35.5123 25.5776C35.5391 25.5709 35.5726 25.5642 35.5993 25.5575C37.6537 25.1092 41.3342 24.8348 42.6123 25.9992C43.6963 26.9895 42.9268 28.3011 42.8398 28.4417C42.5922 28.8164 42.6658 29.3049 43.0004 29.606C43.0071 29.6127 43.7097 30.2752 43.7432 31.1652C43.77 31.7608 43.4889 32.3697 42.9067 32.972Z"
              fill="#3700D4"/>
    </g>
    <defs>
        <clipPath id="clip0">
            <rect width="32" height="32" fill="white" transform="translate(14 12)"/>
        </clipPath>
    </defs>
</svg>
