<svg width="60" height="60" viewBox="0 0 60 60" fill="none" xmlns="http://www.w3.org/2000/svg">
<circle cx="30" cy="30" r="29" stroke="#3700D4" stroke-width="2"/>
<g clip-path="url(#clip0)">
<path d="M44.593 22.6823L44.592 22.6574C44.5781 22.3501 44.5688 22.0249 44.5632 21.6631C44.5371 19.8987 43.1345 18.4392 41.3699 18.3406C37.6907 18.1352 34.8445 16.9355 32.4126 14.5652L32.3919 14.5454C31.5986 13.8181 30.4021 13.8181 29.6087 14.5454L29.5879 14.5652C27.156 16.9355 24.3098 18.1352 20.6307 18.3408C18.8663 18.4392 17.4634 19.8987 17.4373 21.6633C17.4319 22.0227 17.4224 22.3479 17.4085 22.6574L17.407 22.7153C17.3355 26.467 17.2466 31.1362 18.8086 35.3742C19.6675 37.7048 20.9683 39.7306 22.6746 41.3959C24.6179 43.2924 27.1634 44.798 30.24 45.8708C30.3401 45.9057 30.4441 45.934 30.5501 45.9552C30.6995 45.985 30.8499 45.9999 31.0003 45.9999C31.1506 45.9999 31.3013 45.985 31.4504 45.9552C31.5564 45.934 31.6611 45.9054 31.7617 45.8703C34.8347 44.7956 37.3774 43.2892 39.3191 41.393C41.0246 39.7272 42.3254 37.7009 43.185 35.3698C44.7529 31.1191 44.6643 26.4411 44.593 22.6823ZM41.4233 34.7202C39.7759 39.1869 36.4128 42.2546 31.1421 44.0978C31.1233 44.1042 31.1033 44.1098 31.0825 44.1139C31.0281 44.1247 30.9727 44.1247 30.9175 44.1137C30.897 44.1095 30.877 44.1042 30.8584 44.0978C25.5821 42.258 22.2168 39.1921 20.5706 34.725C19.1309 30.8186 19.2124 26.5324 19.2845 22.7512L19.285 22.7302C19.2996 22.4052 19.3094 22.0649 19.3147 21.6909C19.3265 20.9075 19.9505 20.2593 20.7354 20.2156C22.8174 20.0993 24.6465 19.697 26.3272 18.9856C28.0056 18.2751 29.4964 17.2737 30.884 15.9241C30.9546 15.8645 31.0462 15.8643 31.1165 15.9241C32.5044 17.2737 33.9951 18.2751 35.6733 18.9856C37.354 19.697 39.1831 20.0993 41.2654 20.2156C42.0503 20.2593 42.6743 20.9075 42.6858 21.6911C42.6914 22.0671 42.7012 22.4074 42.7158 22.7302C42.7876 26.5158 42.8672 30.8054 41.4233 34.7202Z" fill="#3700D4"/>
<path d="M30.9998 22.0256C26.6024 22.0256 23.025 25.6033 23.025 30.0005C23.025 34.398 26.6024 37.9756 30.9998 37.9756C35.397 37.9756 38.9747 34.398 38.9747 30.0005C38.9747 25.6033 35.397 22.0256 30.9998 22.0256ZM30.9998 36.0977C27.6378 36.0977 24.9026 33.3625 24.9026 30.0005C24.9026 26.6384 27.6378 23.9033 30.9998 23.9033C34.3616 23.9033 37.0967 26.6384 37.0967 30.0005C37.0967 33.3625 34.3616 36.0977 30.9998 36.0977Z" fill="#3700D4"/>
<path d="M33.2918 27.5247L29.5877 31.2288L28.5823 30.2234C28.2156 29.8567 27.6212 29.8567 27.2545 30.2234C26.888 30.5901 26.888 31.1846 27.2545 31.551L28.9239 33.2205C29.1072 33.4038 29.3475 33.4954 29.5877 33.4954C29.8279 33.4954 30.0682 33.4038 30.2515 33.2205L34.6197 28.8523C34.9861 28.4856 34.9861 27.8911 34.6197 27.5247C34.253 27.1577 33.6585 27.1577 33.2918 27.5247Z" fill="#3700D4"/>
</g>
<defs>
<clipPath id="clip0">
<rect width="32" height="32" fill="white" transform="translate(15 14)"/>
</clipPath>
</defs>
</svg>
