<svg width="49" height="49" viewBox="0 0 49 49" fill="none" xmlns="http://www.w3.org/2000/svg">
<path fill-rule="evenodd" clip-rule="evenodd" d="M32.2676 0.900024H17.5322C4.08409 0.900024 0.899902 4.08422 0.899902 17.5323V32.2677C0.899902 45.7158 4.08409 48.9 17.5322 48.9H32.2676C45.7157 48.9 48.8999 45.7158 48.8999 32.2677V17.5323C48.8999 4.08422 45.7157 0.900024 32.2676 0.900024ZM39.1441 16.1435C40.1942 16.1435 40.4313 16.6855 40.1942 17.4307C39.8242 19.1387 36.7511 23.6692 35.7993 25.0725C35.6184 25.3391 35.5141 25.4928 35.5196 25.4928C35.1469 26.1026 35.0114 26.3736 35.5196 27.051C35.7032 27.3015 36.0927 27.6837 36.5379 28.1205C36.9957 28.5698 37.5124 29.0768 37.9246 29.5577C39.4151 31.2515 40.5668 32.6742 40.8717 33.6565C41.1427 34.6389 40.6685 35.147 39.6522 35.147H36.1632C35.2385 35.147 34.7619 34.616 33.7461 33.4843C33.3106 32.9991 32.776 32.4034 32.0644 31.6918C29.998 29.6932 29.0834 29.4223 28.5753 29.4223C27.8639 29.4223 27.6607 29.5916 27.6607 30.6079V33.7582C27.6607 34.605 27.3897 35.1131 25.154 35.1131C21.4617 35.1131 17.3629 32.8774 14.4836 28.7109C10.1476 22.6135 8.96204 18.0066 8.96204 17.092C8.96204 16.5839 9.13141 16.1096 10.1476 16.1096H13.6706C14.5513 16.1096 14.8901 16.4822 15.2288 17.4646C16.9564 22.4441 19.8357 26.8139 21.0213 26.8139C21.4617 26.8139 21.6649 26.6107 21.6649 25.4928V20.3439C21.5813 18.8804 21.0718 18.2427 20.694 17.7699C20.4597 17.4766 20.2761 17.2468 20.2761 16.9226C20.2761 16.5161 20.6148 16.1096 21.1568 16.1096H26.6445C27.3897 16.1096 27.6607 16.5161 27.6607 17.3968V24.3411C27.6607 25.0863 27.9656 25.3573 28.2027 25.3573C28.6431 25.3573 29.0157 25.0863 29.8287 24.2733C32.3354 21.4618 34.1307 17.1259 34.1307 17.1259C34.3678 16.6177 34.7743 16.1435 35.655 16.1435H39.1441Z" fill="white"/>
</svg>
