<svg width="60" height="60" viewBox="0 0 60 60" fill="none" xmlns="http://www.w3.org/2000/svg">
    <circle cx="30" cy="30" r="29" stroke="#3700D4" stroke-width="2"/>
    <path d="M31.0778 33.0848H29.2482C28.583 33.0848 28.0441 32.5459 28.0441 31.8807C28.0441 31.2154 28.583 30.6765 29.2482 30.6765H32.4682C32.9073 30.6765 33.2665 30.3172 33.2665 29.8782C33.2665 29.4391 32.9073 29.0798 32.4682 29.0798H30.958V27.9688C30.958 27.5297 30.5988 27.1705 30.1597 27.1705C29.7206 27.1705 29.3613 27.5297 29.3613 27.9688V29.0798H29.2482C27.7048 29.0798 26.4474 30.3372 26.4474 31.8807C26.4474 33.4241 27.7048 34.6815 29.2482 34.6815H31.0778C31.743 34.6815 32.2819 35.2204 32.2819 35.8856C32.2819 36.5509 31.743 37.0898 31.0778 37.0898H27.7979C27.3588 37.0898 26.9996 37.4491 26.9996 37.8881C26.9996 38.3272 27.3588 38.6865 27.7979 38.6865H29.368V39.8241C29.368 40.2632 29.7272 40.6224 30.1663 40.6224C30.6054 40.6224 30.9647 40.2632 30.9647 39.8241V38.6865H31.0977C31.1044 38.6865 31.111 38.6865 31.1177 38.6865C32.6478 38.6665 33.8786 37.4158 33.8786 35.8856C33.8786 34.3422 32.6212 33.0848 31.0778 33.0848Z"
          fill="#3700D4"/>
    <path d="M42.1613 31.2753C41.3231 29.3459 40.1655 27.4765 38.7019 25.7268C36.9322 23.5979 35.1692 22.1742 34.2711 21.5156L37.664 15.222C37.8304 14.9094 37.7771 14.5235 37.5177 14.2773C36.6395 13.4191 35.7081 13 34.6703 13C33.7189 13 32.8474 13.3593 32.089 13.6786C31.4902 13.9247 30.9247 14.1642 30.4657 14.1642C30.326 14.1642 30.2062 14.1443 30.0865 14.0977C28.5031 13.5189 27.2857 13.1597 26.1081 13.1597C24.6179 13.1597 23.3472 13.7584 22.1031 15.0358C21.8437 15.3019 21.8037 15.721 22.01 16.0337L25.669 21.5622C24.7642 22.2341 23.0345 23.6445 21.2981 25.7268C19.8412 27.4765 18.6769 29.3459 17.8387 31.2753C16.7875 33.7035 16.2553 36.2383 16.2553 38.8062C16.2553 42.2191 19.0362 45 22.4491 45H37.5509C40.9638 45 43.7447 42.2191 43.7447 38.8062C43.7447 36.2383 43.2125 33.7035 42.1613 31.2753ZM23.7131 15.701C24.4848 15.0358 25.2233 14.743 26.1081 14.743C27.0528 14.743 28.1173 15.0624 29.5343 15.5879C29.827 15.6944 30.1397 15.7476 30.459 15.7476C31.2374 15.7476 31.9825 15.4416 32.6944 15.1422C33.3796 14.8561 34.0316 14.5834 34.6636 14.5834C34.9696 14.5834 35.4021 14.6366 35.9476 15.0225L32.7543 20.9568H27.1925L23.7131 15.701ZM37.5509 43.4033H22.4491C19.9143 43.4033 17.852 41.341 17.852 38.8062C17.852 34.5418 19.4154 30.4969 22.489 26.7846C24.4316 24.4362 26.4075 22.9792 27.0062 22.5534H32.9805C33.5859 22.9726 35.5551 24.4362 37.4977 26.7846C40.578 30.4969 42.1347 34.5351 42.1347 38.8062C42.148 41.341 40.0857 43.4033 37.5509 43.4033Z"
          fill="#3700D4"/>
</svg>
